<svg width="1440" height="442" viewBox="0 0 1440 442" fill="none" xmlns="http://www.w3.org/2000/svg">
<path d="M-42 402C-42 424.091 -24.0914 442 -2 442C20.0914 442 38 424.091 38 402C38 379.909 20.0914 362 -2 362C-24.0914 362 -42 379.909 -42 402ZM36 340L30.6967 334.697L36 340ZM92.4444 288.444L96.3671 294.837L92.4444 288.444ZM200.444 283.556L196.057 289.638L200.444 283.556ZM282.889 354.889L277.646 360.252L282.889 354.889ZM411.556 428L411.404 435.499L411.556 428ZM452 417.556L447.1 411.878L452 417.556ZM496 368.444L501.769 373.237L496 368.444ZM568.111 279.111L562.505 274.128L568.111 279.111ZM614.444 232.889L619.368 238.546L614.444 232.889ZM663.889 192.222L660.131 185.732L663.889 192.222ZM764.222 211.111L769.344 205.632L764.222 211.111ZM810.111 257L804.417 261.881L810.111 257ZM840.667 286.667L835.778 292.354L840.667 286.667ZM864.111 303.667L862.202 310.92L864.111 303.667ZM918.111 284.889L912.974 279.424L918.111 284.889ZM981 239.667L985.115 245.937L981 239.667ZM1056.89 177.111L1062.39 182.211L1056.89 177.111ZM1119.67 117.222L1115.32 111.108L1119.67 117.222ZM1226 31.2223L1230.46 37.2511L1226 31.2223ZM1277 12.0001L1278.51 19.346L1277 12.0001ZM1386.67 24.7778L1382.38 30.9308L1386.67 24.7778ZM1433 62.0001L1438.63 57.0423L1433 62.0001ZM8.74447 386.705C10.3186 382.874 8.48875 378.492 4.65738 376.918C0.82601 375.344 -3.55602 377.173 -5.13015 381.005L8.74447 386.705ZM17.4652 348.257C14.6512 351.296 14.8341 356.042 17.8737 358.856C20.9132 361.67 25.6584 361.487 28.4724 358.447L17.4652 348.257ZM48.0992 338.377C50.9794 335.4 50.9011 330.652 47.9243 327.772C44.9475 324.892 40.1994 324.97 37.3192 327.947L48.0992 338.377ZM50.6718 314.131C47.7712 317.088 47.8169 321.836 50.7738 324.737C53.7308 327.637 58.4793 327.592 61.38 324.635L50.6718 314.131ZM74.8165 311.549C77.8723 308.753 78.0827 304.009 75.2864 300.953C72.4901 297.897 67.7461 297.687 64.6902 300.483L74.8165 311.549ZM80.0706 287.746C76.7287 290.193 76.0035 294.886 78.4507 298.228C80.8979 301.57 85.591 302.295 88.9329 299.848L80.0706 287.746ZM108.196 288.474C111.947 286.718 113.564 282.253 111.808 278.502C110.052 274.75 105.587 273.133 101.835 274.889L108.196 288.474ZM130.415 265.184C126.367 266.063 123.799 270.058 124.678 274.105C125.558 278.153 129.552 280.721 133.6 279.842L130.415 265.184ZM159.969 277.574C164.105 277.803 167.643 274.636 167.873 270.5C168.102 266.365 164.935 262.826 160.799 262.597L159.969 277.574ZM191.092 269.617C187.302 267.946 182.875 269.664 181.204 273.454C179.533 277.244 181.25 281.671 185.04 283.342L191.092 269.617ZM206.831 297.65C210.12 300.168 214.827 299.543 217.345 296.254C219.863 292.965 219.238 288.257 215.948 285.739L206.831 297.65ZM237.47 303.071C234.304 300.4 229.572 300.803 226.901 303.969C224.231 307.135 224.633 311.867 227.799 314.537L237.47 303.071ZM248.11 332.338C251.177 335.121 255.92 334.892 258.704 331.824C261.487 328.757 261.257 324.014 258.19 321.23L248.11 332.338ZM278.276 339.986C275.285 337.121 270.537 337.223 267.672 340.214C264.807 343.205 264.909 347.953 267.9 350.818L278.276 339.986ZM286.823 369.092C289.83 371.94 294.577 371.811 297.425 368.804C300.274 365.796 300.145 361.049 297.137 358.201L286.823 369.092ZM315.592 374.871C312.442 372.182 307.708 372.556 305.018 375.706C302.329 378.856 302.703 383.59 305.853 386.28L315.592 374.871ZM326.122 402.316C329.476 404.747 334.165 403.999 336.596 400.646C339.027 397.292 338.279 392.603 334.926 390.171L326.122 402.316ZM355.411 403.41C351.803 401.376 347.229 402.651 345.194 406.259C343.16 409.867 344.435 414.442 348.043 416.476L355.411 403.41ZM371.968 427.683C375.852 429.121 380.167 427.138 381.605 423.253C383.043 419.369 381.06 415.054 377.176 413.616L371.968 427.683ZM400.045 419.539C395.946 418.949 392.143 421.794 391.553 425.893C390.963 429.993 393.808 433.795 397.908 434.386L400.045 419.539ZM422.516 435.534C426.656 435.412 429.914 431.958 429.793 427.817C429.672 423.677 426.217 420.419 422.077 420.54L422.516 435.534ZM439.773 416.832C436.065 418.678 434.556 423.181 436.402 426.889C438.249 430.596 442.752 432.105 446.459 430.259L439.773 416.832ZM469.353 411.378C472.226 408.394 472.135 403.646 469.151 400.773C466.167 397.9 461.419 397.991 458.547 400.975L469.353 411.378ZM479.735 376.486C477.119 379.698 477.602 384.422 480.814 387.038C484.026 389.654 488.75 389.17 491.366 385.959L479.735 376.486ZM510.922 362.026C513.518 358.798 513.005 354.077 509.777 351.482C506.548 348.886 501.828 349.399 499.232 352.627L510.922 362.026ZM516.942 330.177C514.394 333.443 514.977 338.155 518.242 340.703C521.508 343.251 526.221 342.669 528.769 339.403L516.942 330.177ZM546.437 316.858C549.012 313.613 548.469 308.896 545.225 306.321C541.98 303.746 537.262 304.289 534.688 307.534L546.437 316.858ZM552.987 285.115C550.312 288.277 550.707 293.009 553.869 295.684C557.031 298.36 561.763 297.965 564.439 294.803L552.987 285.115ZM584.622 272.17C587.461 269.154 587.317 264.407 584.3 261.568C581.284 258.73 576.537 258.874 573.699 261.89L584.622 272.17ZM597.172 238.404C594.152 241.239 594.001 245.985 596.836 249.006C599.671 252.026 604.417 252.177 607.437 249.342L597.172 238.404ZM631.424 227.676C634.475 224.875 634.678 220.13 631.877 217.079C629.076 214.027 624.332 213.824 621.281 216.625L631.424 227.676ZM646.057 195.219C642.763 197.73 642.128 202.436 644.64 205.73C647.151 209.024 651.857 209.659 655.151 207.148L646.057 195.219ZM678.705 193.711C682.633 192.395 684.75 188.145 683.434 184.217C682.118 180.29 677.868 178.172 673.94 179.488L678.705 193.711ZM703.742 175.722C699.608 175.462 696.046 178.602 695.786 182.736C695.525 186.87 698.665 190.432 702.799 190.693L703.742 175.722ZM727.075 196.253C730.932 197.763 735.283 195.861 736.794 192.004C738.305 188.147 736.403 183.796 732.546 182.286L727.075 196.253ZM758.097 196.353C754.746 193.918 750.056 194.66 747.62 198.011C745.185 201.361 745.927 206.052 749.278 208.487L758.097 196.353ZM770.94 227.662C773.956 230.5 778.703 230.355 781.541 227.338C784.379 224.321 784.234 219.575 781.218 216.737L770.94 227.662ZM804.654 239.798C801.8 236.796 797.052 236.677 794.051 239.531C791.049 242.385 790.929 247.132 793.784 250.134L804.654 239.798ZM811.858 270.078C814.724 273.069 819.471 273.171 822.462 270.306C825.454 267.44 825.556 262.693 822.69 259.701L811.858 270.078ZM837.654 274.059C834.569 271.295 829.828 271.555 827.064 274.64C824.3 277.725 824.56 282.467 827.645 285.231L837.654 274.059ZM840.961 297.082C843.994 299.903 848.739 299.732 851.561 296.699C854.382 293.666 854.211 288.921 851.178 286.099L840.961 297.082ZM861.305 294.324C857.757 292.187 853.148 293.331 851.01 296.879C848.873 300.427 850.017 305.036 853.565 307.173L861.305 294.324ZM879.34 312.896C883.478 312.715 886.687 309.214 886.506 305.076C886.326 300.938 882.825 297.73 878.687 297.91L879.34 312.896ZM902.184 288.578C898.848 291.033 898.134 295.728 900.589 299.064C903.044 302.4 907.739 303.114 911.075 300.659L902.184 288.578ZM930.194 284.179C933.359 281.507 933.759 276.775 931.087 273.61C928.416 270.445 923.684 270.045 920.519 272.716L930.194 284.179ZM936.269 260.477C932.913 262.905 932.161 267.594 934.59 270.95C937.018 274.305 941.707 275.057 945.063 272.629L936.269 260.477ZM960.777 261.796C964.228 259.506 965.17 254.852 962.88 251.4C960.589 247.949 955.935 247.007 952.484 249.297L960.777 261.796ZM968.798 238.66C965.321 240.912 964.327 245.555 966.579 249.032C968.83 252.509 973.474 253.502 976.951 251.251L968.798 238.66ZM995.477 239.004C998.897 236.667 999.774 232 997.438 228.58C995.101 225.16 990.434 224.282 987.014 226.619L995.477 239.004ZM1006.71 212.45C1003.42 214.959 1002.78 219.665 1005.29 222.961C1007.8 226.256 1012.5 226.893 1015.8 224.384L1006.71 212.45ZM1035.3 208.513C1038.42 205.791 1038.75 201.053 1036.02 197.931C1033.3 194.809 1028.56 194.485 1025.44 197.208L1035.3 208.513ZM1043.03 180.721C1040.11 183.66 1040.13 188.408 1043.07 191.328C1046.01 194.247 1050.76 194.23 1053.68 191.292L1043.03 180.721ZM1069.77 174.222C1072.58 171.18 1072.4 166.435 1069.36 163.624C1066.31 160.812 1061.57 161 1058.76 164.042L1069.77 174.222ZM1073.73 148.08C1070.86 151.066 1070.95 155.814 1073.93 158.685C1076.92 161.557 1081.67 161.464 1084.54 158.479L1073.73 148.08ZM1099.69 143.447C1102.71 140.615 1102.86 135.868 1100.03 132.846C1097.2 129.823 1092.45 129.669 1089.43 132.501L1099.69 143.447ZM1106.32 117.869C1103.08 120.441 1102.53 125.158 1105.1 128.405C1107.67 131.652 1112.39 132.2 1115.64 129.628L1106.32 117.869ZM1133.37 116.498C1136.69 114.014 1137.36 109.313 1134.87 105.999C1132.39 102.685 1127.69 102.012 1124.37 104.497L1133.37 116.498ZM1142.1 90.6245C1138.88 93.2347 1138.39 97.9579 1141 101.174C1143.61 104.39 1148.34 104.882 1151.55 102.271L1142.1 90.6245ZM1169.2 87.594C1172.36 84.9171 1172.76 80.1846 1170.08 77.0237C1167.4 73.8627 1162.67 73.4703 1159.51 76.1472L1169.2 87.594ZM1176.84 61.3747C1173.69 64.0618 1173.31 68.7956 1176 71.9478C1178.69 75.1 1183.42 75.477 1186.58 72.7898L1176.84 61.3747ZM1203.93 58.1682C1207.12 55.5267 1207.56 50.7989 1204.92 47.6083C1202.28 44.4177 1197.55 43.9725 1194.36 46.614L1203.93 58.1682ZM1212.32 32.1821C1209.05 34.7202 1208.45 39.4314 1210.99 42.7048C1213.53 45.9782 1218.24 46.5743 1221.51 44.0362L1212.32 32.1821ZM1241.07 30.7656C1244.77 28.9086 1246.27 24.4017 1244.41 20.6991C1242.56 16.9966 1238.05 15.5006 1234.35 17.3576L1241.07 30.7656ZM1261.79 7.70036C1257.77 8.69357 1255.31 12.7586 1256.31 16.7799C1257.3 20.8012 1261.36 23.256 1265.39 22.2628L1261.79 7.70036ZM1291.98 17.0248C1296.08 16.4516 1298.94 12.6615 1298.37 8.55917C1297.8 4.45688 1294 1.59593 1289.9 2.16906L1291.98 17.0248ZM1319.12 0.024363C1314.97 0.0424981 1311.63 3.41503 1311.65 7.55713C1311.67 11.6992 1315.04 15.0424 1319.18 15.0242L1319.12 0.024363ZM1346.07 17.1106C1350.15 17.8103 1354.03 15.0679 1354.73 10.9853C1355.43 6.90273 1352.68 3.0259 1348.6 2.32619L1346.07 17.1106ZM1377.5 10.9821C1373.74 9.25506 1369.29 10.9071 1367.56 14.6721C1365.83 18.437 1367.49 22.8891 1371.25 24.6161L1377.5 10.9821ZM1394.62 39.4116C1398.01 41.7835 1402.69 40.9535 1405.06 37.5577C1407.43 34.1619 1406.6 29.4862 1403.21 27.1143L1394.62 39.4116ZM1427.5 45.8696C1424.41 43.1036 1419.67 43.3609 1416.91 46.4442C1414.14 49.5275 1414.4 54.2692 1417.48 57.0352L1427.5 45.8696ZM1435.31 74.9259C1438.32 77.7718 1443.07 77.6389 1445.92 74.6292C1448.76 71.6195 1448.63 66.8726 1445.62 64.0268L1435.31 74.9259ZM1461.08 80.185C1458.58 76.882 1453.88 76.2306 1450.58 78.7301C1447.27 81.2296 1446.62 85.9334 1449.12 89.2365L1461.08 80.185ZM5.5 402C5.5 396.873 6.65629 391.788 8.74447 386.705L-5.13015 381.005C-7.81741 387.545 -9.5 394.572 -9.5 402H5.5ZM28.4724 358.447C32.739 353.839 37.1137 349.493 41.3033 345.303L30.6967 334.697C26.5721 338.821 21.9697 343.391 17.4652 348.257L28.4724 358.447ZM41.3033 345.303C43.561 343.046 45.8279 340.724 48.0992 338.377L37.3192 327.947C35.0765 330.265 32.8728 332.521 30.6967 334.697L41.3033 345.303ZM61.38 324.635C65.7988 320.13 70.2626 315.717 74.8165 311.549L64.6902 300.483C59.8586 304.905 55.1861 309.529 50.6718 314.131L61.38 324.635ZM88.9329 299.848C91.3938 298.046 93.8705 296.369 96.3671 294.837L88.5218 282.052C85.6375 283.822 82.8213 285.732 80.0706 287.746L88.9329 299.848ZM96.3671 294.837C100.115 292.537 104.076 290.403 108.196 288.474L101.835 274.889C97.2147 277.053 92.7576 279.453 88.5218 282.052L96.3671 294.837ZM133.6 279.842C142.422 277.924 151.343 277.096 159.969 277.574L160.799 262.597C150.666 262.035 140.388 263.016 130.415 265.184L133.6 279.842ZM185.04 283.342C188.891 285.04 192.577 287.128 196.057 289.638L204.832 277.473C200.471 274.327 195.868 271.723 191.092 269.617L185.04 283.342ZM196.057 289.638C199.668 292.243 203.26 294.916 206.831 297.65L215.948 285.739C212.271 282.924 208.565 280.166 204.832 277.473L196.057 289.638ZM227.799 314.537C234.665 320.327 241.437 326.283 248.11 332.338L258.19 321.23C251.403 315.07 244.493 308.994 237.47 303.071L227.799 314.537ZM267.9 350.818C271.178 353.958 274.427 357.105 277.646 360.252L288.132 349.526C284.88 346.347 281.595 343.164 278.276 339.986L267.9 350.818ZM277.646 360.252C280.62 363.159 283.681 366.116 286.823 369.092L297.137 358.201C294.066 355.292 291.063 352.392 288.132 349.526L277.646 360.252ZM305.853 386.28C312.335 391.812 319.099 397.226 326.122 402.316L334.926 390.171C328.283 385.357 321.833 380.198 315.592 374.871L305.853 386.28ZM348.043 416.476C355.744 420.819 363.727 424.632 371.968 427.683L377.176 413.616C369.788 410.88 362.527 407.423 355.411 403.41L348.043 416.476ZM397.908 434.386C402.349 435.025 406.85 435.407 411.404 435.499L411.707 420.502C407.791 420.422 403.904 420.094 400.045 419.539L397.908 434.386ZM411.404 435.499C415.154 435.574 418.893 435.64 422.516 435.534L422.077 420.54C418.876 420.634 415.489 420.578 411.707 420.502L411.404 435.499ZM446.459 430.259C450.032 428.479 453.495 426.172 456.9 423.234L447.1 411.878C444.578 414.054 442.152 415.647 439.773 416.832L446.459 430.259ZM456.9 423.234C461.284 419.45 465.413 415.471 469.353 411.378L458.547 400.975C454.867 404.797 451.074 408.448 447.1 411.878L456.9 423.234ZM491.366 385.959C494.867 381.66 498.289 377.426 501.769 373.237L490.231 363.652C486.689 367.915 483.189 372.245 479.735 376.486L491.366 385.959ZM501.769 373.237C504.854 369.524 507.902 365.783 510.922 362.026L499.232 352.627C496.252 356.334 493.256 360.011 490.231 363.652L501.769 373.237ZM528.769 339.403C534.665 331.845 540.516 324.32 546.437 316.858L534.688 307.534C528.717 315.058 522.816 322.647 516.942 330.177L528.769 339.403ZM564.439 294.803C567.496 291.189 570.585 287.617 573.717 284.094L562.505 274.128C559.283 277.754 556.114 281.419 552.987 285.115L564.439 294.803ZM573.717 284.094C577.251 280.118 580.895 276.131 584.622 272.17L573.699 261.89C569.872 265.956 566.133 270.048 562.505 274.128L573.717 284.094ZM607.437 249.342C611.394 245.629 615.379 242.018 619.368 238.546L609.521 227.232C605.38 230.836 601.255 234.573 597.172 238.404L607.437 249.342ZM619.368 238.546C623.402 235.036 627.432 231.34 631.424 227.676L621.281 216.625C617.267 220.309 613.381 223.872 609.521 227.232L619.368 238.546ZM655.151 207.148C659.272 204.006 663.423 201.158 667.647 198.713L660.131 185.732C655.237 188.565 650.554 191.791 646.057 195.219L655.151 207.148ZM667.647 198.713C671.262 196.62 674.958 194.966 678.705 193.711L673.94 179.488C669.243 181.062 664.625 183.13 660.131 185.732L667.647 198.713ZM702.799 190.693C710.961 191.207 719.16 193.152 727.075 196.253L732.546 182.286C723.357 178.687 713.633 176.346 703.742 175.722L702.799 190.693ZM749.278 208.487C752.746 211.007 756.034 213.723 759.101 216.59L769.344 205.632C765.825 202.343 762.061 199.234 758.097 196.353L749.278 208.487ZM759.101 216.59C763.085 220.314 767.02 223.975 770.94 227.662L781.218 216.737C777.276 213.028 773.291 209.322 769.344 205.632L759.101 216.59ZM793.784 250.134C797.424 253.963 800.975 257.866 804.417 261.881L815.805 252.119C812.172 247.88 808.445 243.786 804.654 239.798L793.784 250.134ZM804.417 261.881C806.833 264.7 809.319 267.427 811.858 270.078L822.69 259.701C820.323 257.23 818.024 254.708 815.805 252.119L804.417 261.881ZM827.645 285.231C830.337 287.642 833.054 290.013 835.778 292.354L845.556 280.979C842.886 278.684 840.249 276.384 837.654 274.059L827.645 285.231ZM835.778 292.354C837.395 293.744 839.051 295.304 840.961 297.082L851.178 286.099C849.391 284.436 847.457 282.613 845.556 280.979L835.778 292.354ZM853.565 307.173C856.146 308.728 859.026 310.084 862.202 310.92L866.02 296.414C864.541 296.024 862.982 295.334 861.305 294.324L853.565 307.173ZM862.202 310.92C868.194 312.497 873.881 313.134 879.34 312.896L878.687 297.91C874.874 298.076 870.696 297.644 866.02 296.414L862.202 310.92ZM911.075 300.659C915.258 297.581 919.288 294.076 923.248 290.354L912.974 279.424C909.27 282.906 905.717 285.978 902.184 288.578L911.075 300.659ZM923.248 290.354C925.472 288.263 927.792 286.207 930.194 284.179L920.519 272.716C917.934 274.898 915.413 277.132 912.974 279.424L923.248 290.354ZM945.063 272.629C950.171 268.932 955.443 265.335 960.777 261.796L952.484 249.297C947.049 252.903 941.597 256.621 936.269 260.477L945.063 272.629ZM976.951 251.251C979.695 249.474 982.425 247.702 985.115 245.937L976.885 233.396C974.235 235.135 971.537 236.887 968.798 238.66L976.951 251.251ZM985.115 245.937C988.638 243.625 992.089 241.318 995.477 239.004L987.014 226.619C983.712 228.875 980.339 231.13 976.885 233.396L985.115 245.937ZM1015.8 224.384C1022.48 219.297 1028.95 214.049 1035.3 208.513L1025.44 197.208C1019.36 202.509 1013.15 207.547 1006.71 212.45L1015.8 224.384ZM1053.68 191.292C1056.59 188.359 1059.49 185.337 1062.39 182.211L1051.39 172.012C1048.61 175.013 1045.82 177.912 1043.03 180.721L1053.68 191.292ZM1062.39 182.211C1064.86 179.545 1067.33 176.871 1069.77 174.222L1058.76 164.042C1056.29 166.707 1053.85 169.358 1051.39 172.012L1062.39 182.211ZM1084.54 158.479C1089.51 153.314 1094.52 148.284 1099.69 143.447L1089.43 132.501C1084.02 137.566 1078.82 142.79 1073.73 148.08L1084.54 158.479ZM1115.64 129.628C1118.37 127.463 1121.16 125.363 1124.01 123.336L1115.32 111.108C1112.24 113.296 1109.25 115.553 1106.32 117.869L1115.64 129.628ZM1124.01 123.336C1127.17 121.092 1130.29 118.811 1133.37 116.498L1124.37 104.497C1121.38 106.739 1118.37 108.945 1115.32 111.108L1124.01 123.336ZM1151.55 102.271C1157.51 97.4351 1163.38 92.5226 1169.2 87.594L1159.51 76.1472C1153.73 81.0397 1147.95 85.8789 1142.1 90.6245L1151.55 102.271ZM1186.58 72.7898C1192.35 67.8672 1198.11 62.9811 1203.93 58.1682L1194.36 46.614C1188.46 51.4967 1182.63 56.4383 1176.84 61.3747L1186.58 72.7898ZM1221.51 44.0362C1224.47 41.7406 1227.45 39.4771 1230.46 37.2511L1221.54 25.1935C1218.43 27.4925 1215.36 29.8244 1212.32 32.1821L1221.51 44.0362ZM1230.46 37.2511C1233.84 34.7479 1237.38 32.6149 1241.07 30.7656L1234.35 17.3576C1229.96 19.557 1225.68 22.1322 1221.54 25.1935L1230.46 37.2511ZM1265.39 22.2628C1269.66 21.2065 1274.03 20.2687 1278.51 19.346L1275.49 4.65413C1270.94 5.58969 1266.35 6.57372 1261.79 7.70036L1265.39 22.2628ZM1278.51 19.346C1282.82 18.4601 1287.33 17.6748 1291.98 17.0248L1289.9 2.16906C1284.93 2.86405 1280.1 3.70423 1275.49 4.65413L1278.51 19.346ZM1319.18 15.0242C1328.27 14.9844 1337.36 15.6186 1346.07 17.1106L1348.6 2.32619C1338.9 0.663667 1328.93 -0.0185947 1319.12 0.024363L1319.18 15.0242ZM1371.25 24.6161C1375.21 26.4336 1378.94 28.5317 1382.38 30.9308L1390.96 18.6248C1386.72 15.6701 1382.2 13.1381 1377.5 10.9821L1371.25 24.6161ZM1382.38 30.9308C1386.69 33.9392 1390.41 36.4693 1394.62 39.4116L1403.21 27.1143C1399.3 24.3836 1394.81 21.31 1390.96 18.6248L1382.38 30.9308ZM1417.48 57.0352C1420.97 60.164 1424.28 63.4461 1427.37 66.9578L1438.63 57.0423C1435.09 53.0275 1431.36 49.3306 1427.5 45.8696L1417.48 57.0352ZM1427.37 66.9578C1429.65 69.5399 1432.52 72.2874 1435.31 74.9259L1445.62 64.0268C1442.75 61.3153 1440.38 59.0275 1438.63 57.0423L1427.37 66.9578ZM1449.12 89.2365C1451.18 91.9628 1452.31 94.1512 1452.72 95.8191L1467.28 92.181C1466.16 87.7226 1463.71 83.6612 1461.08 80.185L1449.12 89.2365Z" fill="#EA581F"/>
</svg>
